<?xml version="1.0" encoding="utf-8"?>
<!-- Generator: Adobe Illustrator 16.0.0, SVG Export Plug-In . SVG Version: 6.00 Build 0)  -->
<!DOCTYPE svg PUBLIC "-//W3C//DTD SVG 1.1//EN" "http://www.w3.org/Graphics/SVG/1.1/DTD/svg11.dtd">
<svg version="1.1" id="Layer_1" xmlns="http://www.w3.org/2000/svg" xmlns:xlink="http://www.w3.org/1999/xlink" x="0px" y="0px"
	 width="800px" height="600px" viewBox="0 0 800 600" enable-background="new 0 0 800 600" xml:space="preserve">
<g>
	<path fill="#FD5D52" d="M188.643,297.284l5.5-7.568h7.393c0.88,0,1.796,0,2.75,0c0.953,0,1.782,0.029,2.486,0.088
		c-0.412-0.527-0.888-1.195-1.43-2.002c-0.543-0.807-1.064-1.563-1.562-2.266l-5.28-7.789l-13.816,19.537h-10.78l18.876-26.621
		c0.616-0.852,1.393-1.613,2.333-2.287c0.938-0.676,2.126-1.014,3.564-1.014c1.378,0,2.529,0.316,3.454,0.947
		s1.708,1.415,2.354,2.354l18.393,26.621H188.643z"/>
	<path fill="#FD5D52" d="M260.892,284.436c0,8.888-6.116,13.331-18.348,13.331c-3.549,0-6.601-0.279-9.152-0.835
		c-2.552-0.558-4.657-1.393-6.314-2.509c-1.657-1.114-2.875-2.5-3.652-4.156c-0.777-1.658-1.166-3.602-1.166-5.831v-16.589h9.064
		v16.589c0,1.085,0.146,1.995,0.44,2.729c0.293,0.733,0.843,1.327,1.65,1.782c0.806,0.455,1.943,0.777,3.41,0.967
		c1.467,0.191,3.373,0.287,5.721,0.287c1.76,0,3.227-0.104,4.4-0.31c1.173-0.204,2.112-0.541,2.816-1.011
		c0.704-0.47,1.209-1.07,1.518-1.805c0.308-0.732,0.461-1.613,0.461-2.64v-16.589h9.152V284.436z"/>
	<path fill="#FD5D52" d="M302.604,267.847l-5.896,7.656h-10.516v21.781h-9.108v-21.781h-13.816l5.896-7.656H302.604z"/>
	<path fill="#494949" d="M343.304,282.542c0,5.29-1.78,9.14-5.37,11.58c-1.38,0.94-3.04,1.7-4.96,2.27l-5.92-10.12
		c1.95-2.89,2.26-6.61,0.48-9.65c-1.82-3.12-5.98-5.77-9.54-5.4l4.15,7.09c0.93,1.58,0.53,3.54-0.9,4.37l-2.23,1.31
		c-1.42,0.83-3.33,0.22-4.25-1.36l-4.16-7.09c-2.06,2.92-1.78,7.85,0.04,10.96c1.79,3.06,5.2,4.61,8.69,4.31l4.06,6.94
		c-0.52,0.01-1.06,0.02-1.6,0.02c-7.22,0-12.61-1.22-16.17-3.65c-3.56-2.44-5.35-6.29-5.35-11.58c0-5.25,1.79-9.09,5.36-11.53
		c3.59-2.44,8.97-3.66,16.16-3.66c7.15,0,12.52,1.22,16.12,3.66C341.504,273.453,343.304,277.292,343.304,282.542z"/>
</g>
<g>
	<path fill="#494949" d="M216.765,337.313h-11.772l-6.332-7.522h-13.514v7.522h-8.797v-14.534h24.734
		c1.359,0,2.507-0.282,3.441-0.85c0.935-0.564,1.403-1.345,1.403-2.339c0-1.103-0.425-1.933-1.275-2.484
		c-0.85-0.554-2.04-0.829-3.569-0.829H176.35l5.737-7.395h18.273c1.614,0,3.287,0.149,5.015,0.447
		c1.728,0.297,3.3,0.827,4.717,1.593c1.417,0.764,2.585,1.8,3.506,3.104c0.92,1.302,1.381,2.974,1.381,5.014
		c0,1.105-0.17,2.153-0.51,3.146c-0.34,0.99-0.829,1.884-1.466,2.676c-0.637,0.793-1.417,1.466-2.337,2.02
		c-0.92,0.552-1.962,0.943-3.123,1.167c0.481,0.371,1.02,0.837,1.614,1.405c0.595,0.564,1.388,1.345,2.38,2.336L216.765,337.313z"/>
	<path fill="#494949" d="M231.936,337.313l5.312-7.31h7.139c0.85,0,1.735,0,2.656,0s1.721,0.029,2.402,0.086
		c-0.397-0.512-0.857-1.156-1.381-1.936c-0.524-0.779-1.027-1.508-1.509-2.187l-5.1-7.523l-13.344,18.869h-10.412l18.231-25.71
		c0.595-0.822,1.346-1.559,2.253-2.209c0.906-0.653,2.054-0.978,3.442-0.978c1.332,0,2.443,0.304,3.336,0.913
		c0.892,0.608,1.65,1.366,2.273,2.273l17.763,25.71H231.936z"/>
	<path fill="#494949" d="M304.308,322.822c0,2.066-0.434,3.987-1.297,5.758c-0.864,1.771-2.054,3.301-3.569,4.59
		c-1.516,1.288-3.322,2.301-5.418,3.038c-2.098,0.735-4.377,1.104-6.842,1.104h-19.038V319.59h8.839v10.413h10.199
		c1.218,0,2.344-0.163,3.378-0.488c1.034-0.325,1.919-0.787,2.656-1.381c0.736-0.596,1.318-1.311,1.743-2.147
		c0.424-0.834,0.637-1.763,0.637-2.783c0-0.99-0.213-1.911-0.637-2.762c-0.425-0.852-1.021-1.579-1.786-2.188
		c-0.765-0.609-1.657-1.091-2.677-1.446c-1.02-0.354-2.125-0.531-3.315-0.531h-19.038l5.609-7.395h13.429
		c2.492,0,4.788,0.341,6.884,1.021c2.097,0.681,3.902,1.637,5.418,2.867c1.516,1.233,2.699,2.707,3.549,4.422
		C303.881,318.905,304.308,320.779,304.308,322.822z"/>
	<path fill="#494949" d="M317.693,337.313h-8.797v-28.431h8.797V337.313z"/>
	<path fill="#FD5D52" d="M363.844,323.072c0,5.101-1.73,8.82-5.19,11.18c-3.46,2.361-8.65,3.521-15.59,3.521
		c-6.97,0-12.18-1.159-15.62-3.521c-3.44-2.359-5.16-6.079-5.16-11.18c0-5.07,1.73-8.779,5.19-11.13c0.95-0.649,2.04-1.21,3.25-1.67
		l4.64,7.91c-1.86,2.88-2.13,6.521-0.38,9.51c1.82,3.11,5.98,5.761,9.54,5.4l-4.15-7.091c-0.93-1.59-0.52-3.549,0.9-4.379
		l2.23-1.311c1.42-0.83,3.33-0.22,4.26,1.37l4.15,7.09c2.06-2.93,1.78-7.86-0.04-10.97c-1.82-3.11-5.32-4.65-8.88-4.29l-2.93-5.011
		c0.96-0.049,1.96-0.079,3-0.079c6.9,0,12.11,1.159,15.58,3.52C362.114,314.293,363.844,318.002,363.844,323.072z"/>
	<path fill="#494949" d="M397.118,337.78c-0.567,0-1.126-0.094-1.678-0.277c-0.554-0.185-1.169-0.601-1.849-1.252l-17.424-15.641
		v16.702h-7.989v-23.585c0-0.936,0.133-1.743,0.403-2.424c0.27-0.68,0.623-1.231,1.063-1.657c0.438-0.424,0.947-0.737,1.53-0.934
		c0.58-0.198,1.182-0.297,1.806-0.297c0.537,0,1.083,0.09,1.636,0.275c0.552,0.184,1.183,0.603,1.892,1.253l17.424,15.639v-16.701
		h8.031v23.544c0,0.934-0.135,1.742-0.404,2.422c-0.269,0.679-0.623,1.24-1.063,1.679c-0.439,0.439-0.956,0.757-1.551,0.956
		C398.35,337.681,397.741,337.78,397.118,337.78z"/>
	<path fill="#494949" d="M416.07,337.313h-8.797v-28.431h8.797V337.313z"/>
	<path fill="#494949" d="M457.718,330.003l-5.651,7.31h-14.28c-2.465,0-4.745-0.369-6.842-1.104
		c-2.097-0.737-3.903-1.75-5.418-3.038c-1.517-1.289-2.706-2.819-3.57-4.59s-1.296-3.691-1.296-5.758
		c0-2.068,0.432-3.96,1.296-5.675s2.054-3.187,3.57-4.419c1.515-1.232,3.321-2.182,5.418-2.847c2.097-0.667,4.377-1,6.842-1h19.932
		l-5.651,7.395h-14.28c-1.189,0-2.295,0.17-3.313,0.51c-1.021,0.34-1.898,0.814-2.636,1.424c-0.737,0.61-1.317,1.34-1.743,2.188
		c-0.425,0.85-0.637,1.786-0.637,2.805c0,1.021,0.205,1.949,0.616,2.783c0.411,0.837,0.99,1.552,1.743,2.147
		c0.749,0.594,1.636,1.056,2.656,1.381c1.019,0.325,2.124,0.488,3.313,0.488H457.718z"/>
	<path fill="#494949" d="M471.358,337.313l5.312-7.31h7.14c0.85,0,1.735,0,2.655,0s1.721,0.029,2.4,0.086
		c-0.396-0.512-0.855-1.156-1.381-1.936c-0.524-0.779-1.027-1.508-1.508-2.187l-5.1-7.523l-13.344,18.869h-10.412l18.231-25.71
		c0.595-0.822,1.345-1.559,2.253-2.209c0.906-0.653,2.054-0.978,3.44-0.978c1.331,0,2.444,0.304,3.338,0.913
		c0.892,0.608,1.648,1.366,2.273,2.273l17.761,25.71H471.358z"/>
	<path fill="#494949" d="M506.673,333.699c0-1.331,0.46-2.356,1.382-3.08c0.92-0.723,2.046-1.084,3.378-1.084
		c1.359,0,2.499,0.361,3.422,1.084c0.92,0.724,1.379,1.749,1.379,3.08c0,1.305-0.459,2.311-1.379,3.019
		c-0.923,0.709-2.063,1.063-3.422,1.063c-1.332,0-2.458-0.354-3.378-1.063C507.133,336.01,506.673,335.004,506.673,333.699z"/>
	<path fill="#494949" d="M540.329,319.464c0.622,1.104,1.167,2.075,1.636,2.91c0.468,0.837,0.878,1.581,1.233,2.23
		c0.353,0.653,0.664,1.248,0.934,1.787c0.27,0.537,0.531,1.063,0.787,1.571c0.226-0.509,0.475-1.026,0.744-1.551
		c0.269-0.524,0.58-1.119,0.933-1.785c0.356-0.666,0.767-1.409,1.234-2.23c0.467-0.82,1.012-1.786,1.635-2.89l4.548-8.074
		c0.51-0.907,1.154-1.636,1.934-2.189c0.778-0.552,1.748-0.827,2.911-0.827c1.104,0,2.104,0.318,2.996,0.955
		c0.893,0.638,1.537,1.622,1.933,2.952l7.184,24.989h-8.755l-2.678-9.902c-0.453-1.614-0.836-3.029-1.147-4.248
		c-0.311-1.218-0.579-2.408-0.807-3.572c-0.481,0.994-1.021,2.092-1.615,3.296c-0.596,1.204-1.374,2.726-2.337,4.568l-3.825,7.139
		c-0.369,0.708-0.744,1.267-1.126,1.679c-0.383,0.411-0.772,0.729-1.169,0.956c-0.397,0.226-0.821,0.375-1.274,0.447
		c-0.455,0.069-0.95,0.105-1.489,0.105c-0.537,0-1.033-0.036-1.486-0.105c-0.453-0.072-0.877-0.222-1.274-0.447
		c-0.396-0.227-0.786-0.545-1.169-0.956c-0.383-0.412-0.758-0.971-1.126-1.679l-3.825-7.183c-0.51-0.962-0.963-1.827-1.359-2.592
		c-0.396-0.766-0.759-1.451-1.083-2.062c-0.327-0.609-0.608-1.169-0.85-1.678c-0.243-0.512-0.476-1.007-0.702-1.489
		c-0.228,1.135-0.496,2.317-0.808,3.55s-0.679,2.656-1.104,4.271l-2.677,9.902h-8.628l7.352-24.989
		c0.396-1.33,1.049-2.314,1.955-2.952c0.906-0.637,1.913-0.955,3.017-0.955c1.134,0,2.09,0.269,2.869,0.807
		c0.778,0.539,1.424,1.273,1.934,2.21L540.329,319.464z"/>
	<path fill="#494949" d="M607.218,330.003l-5.652,7.31h-27.368v-28.431h32.937l-5.695,7.395h-18.4v3.401h22.522l-5.058,6.458
		h-17.465v3.867H607.218z"/>
</g>
<path fill-rule="evenodd" clip-rule="evenodd" fill="#D10000" d="M581.327,269.895c0.16,0.099,0.331,0.183,0.491,0.282
	c0.047-0.11,0.099-0.222,0.135-0.33C581.744,269.858,581.536,269.87,581.327,269.895z"/>
<g>
	<g>
		<g>
			<g>
				<path fill-rule="evenodd" clip-rule="evenodd" fill="#494949" d="M487.05,277.255c2.433,1.885,5.043,3.389,7.781,4.604
					c1.902,0.837,3.858,1.54,5.848,2.135c14.718,4.388,28.942,2.782,42.563-4.621c7.664-4.182,15.545-7.576,23.95-9.332
					c0.712-0.154,1.434-0.289,2.162-0.415c2.856-0.495,5.703-0.802,8.531-0.91c6.152-0.206,12.259,0.56,18.295,2.577
					c0.244,0.07,0.496,0.109,0.865-0.092c-0.45-0.27-0.874-0.576-1.344-0.828c-6.268-3.44-12.896-4.936-19.744-5.17
					c-0.82-0.037-1.657-0.045-2.505-0.037c-0.79,0.019-1.604,0.037-2.413,0.074c-0.198,0.008-0.406,0.026-0.604,0.045
					c-0.352,0.018-0.703,0.035-1.064,0.07c-0.197,0.008-0.387,0.029-0.584,0.047c-2.008,0.171-3.99,0.459-5.945,0.846
					c-3.955,0.773-7.801,1.955-11.576,3.45c-3.388,1.343-6.701,2.928-9.963,4.72c-1.169,0.64-2.342,1.234-3.52,1.803
					c-11.234,5.332-22.665,6.954-34.277,5.34c-5.018-0.692-10.07-1.99-15.151-3.854C487.922,277.552,487.474,277.408,487.05,277.255
					z"/>
				<path fill-rule="evenodd" clip-rule="evenodd" fill="#494949" d="M598.388,292.868c0.896-6.789-1.335-12.436-5.775-17.792
					c1.936,0.266,3.493,0.478,5.424,0.738c-3.637-2.801-7.495-2.993-11.837-3.327C592.722,277.887,596.645,284.604,598.388,292.868z
					"/>
			</g>
			<path fill="#494949" d="M502.75,258.492c4.199,0.484,8.359,1.214,12.494,2.16c9.069,2.063,17.989,5.188,26.755,9.253
				c0.754,0.359,1.791,0.359,2.612,0.135c1.801-0.504,3.603-1.01,5.385-1.523c0.964-0.279,1.928-0.557,2.892-0.828
				c1.92-0.559,3.828-1.118,5.704-1.666c-1.785-0.738-3.588-1.414-5.39-2.02c-10.322-3.503-20.843-4.953-31.446-5.448
				C515.425,258.248,509.083,258.238,502.75,258.492z"/>
		</g>
	</g>
	<path fill-rule="evenodd" clip-rule="evenodd" fill="#D10000" d="M568.787,265.401c0.151,0.092,0.312,0.173,0.463,0.266
		c0.044-0.104,0.093-0.208,0.127-0.311C569.179,265.367,568.983,265.378,568.787,265.401z"/>
	<path fill-rule="evenodd" clip-rule="evenodd" fill="#FD5D52" d="M357.325,290.388c1.875-2.17,6.892-5.945,20.053-9.376
		c2.425-0.622,5.161-1.234,8.215-1.793c12.755-2.333,31.304-3.874,58.289-3.468c0,0,1.801-0.054,4.693-0.199h0.011
		c10.018-0.514,33.104-2.126,39.951-6.439l-46.969,0.883l-6.522,0.125c0,0,3.08-2.955,9.017-6.486
		c7.343-6.07,28.195-10.863,52.887-11.549c12.826-0.35,24.673,0.461,34.179,2.109c7.916,0.793,15.779,2.279,23.519,4.918
		c1.638,0.568,3.268,1.182,4.899,1.847c0.082,0.036,0.162,0.073,0.242,0.108c0.566,0.225,1.135,0.469,1.702,0.711
		c0.344,0.154,0.695,0.316,1.037,0.479c0.458,0.217,0.917,0.451,1.369,0.686c0.621,0.322,1.233,0.691,1.847,1.035
		c0.198-0.008,0.397-0.037,0.605-0.046c0.006-0.054,0.043-0.117,0.053-0.162c-1.188-1.027-2.37-2.136-3.595-3.098
		c-0.261-0.208-0.533-0.415-0.812-0.614c-1.817-1.305-3.692-2.441-5.602-3.432c-2.694-1.413-5.461-2.549-8.26-3.504
		c-1.955-0.666-3.921-1.252-5.884-1.781c-11.694-3.164-23.475-4.947-35.348-5.145c-1.549-0.037-3.091,0.008-4.64,0.09
		c-7.377-0.281-14.68,0.027-21.932,0.955c-6.271,0.162-15.714,1.161-26.639,4.873c-3.72,1.252-7.595,2.811-11.565,4.764
		c-5.549,2.721-11.297,6.191-17.068,10.584c0,0-2.867,0.191-7.423,0.667c-1.343,0.136-2.821,0.298-4.415,0.497
		c-3,0.359-6.395,0.811-10.018,1.377c-1.493,0.235-3.025,0.479-4.574,0.739c-0.622,0.117-1.253,0.234-1.885,0.351
		c-0.016,0-0.016,0.01-0.025,0.01c-2.002,0.369-4.037,0.766-6.072,1.199C373.82,275.886,363.236,281.228,357.325,290.388z"/>
</g>
<path fill-rule="evenodd" clip-rule="evenodd" fill="#494949" d="M592.434,284.786c-4.993,2.274-10.402,4.2-16.098,5.859
	c-3.954,1.146-8.034,2.167-12.194,3.085c-30.778,6.779-60.973,7.503-90.333,2.347c-16.531-2.916-33.453-5.013-51.355-5.389
	c-1.518-0.037-3.051-0.055-4.604-0.061c-6.078-0.027-12.117,0.131-18.105,0.486c-13.02,0.799-25.874,2.561-38.478,5.559
	c-0.511,0.111-1.038,0.189-1.834,0.051c0.928-0.344,1.804-0.718,2.776-1.046c12.983-4.456,26.886-7.029,41.343-8.382
	c1.73-0.17,3.5-0.316,5.289-0.445c1.674-0.111,3.396-0.227,5.111-0.322c0.417-0.023,0.857-0.038,1.277-0.053
	c0.746-0.039,1.488-0.079,2.254-0.104c0.421-0.023,0.82-0.035,1.236-0.049c4.262-0.158,8.475-0.195,12.637-0.129
	c8.419,0.125,16.645,0.674,24.737,1.549c7.268,0.785,14.398,1.824,21.429,3.078c2.519,0.445,5.046,0.846,7.578,1.221
	c24.159,3.481,48.45,3.23,72.873-0.275c10.557-1.512,21.139-3.631,31.733-6.318C590.613,285.224,591.553,285.007,592.434,284.786z"
	/>
</svg>
